<svg width="360" height="339" viewBox="0 0 360 339" fill="none" xmlns="http://www.w3.org/2000/svg">
<path d="M-277.871 344.229C-275.838 343.48 -86.3922 264.084 -79.4136 261.264C-69.0868 256.942 -64.194 245.12 -68.5275 234.766C-72.843 224.456 -84.6733 219.582 -95.0434 223.923C-101.769 226.738 -175.227 257.484 -177.267 258.338C-187.593 262.66 -199.449 257.848 -203.782 247.494C-208.098 237.184 -203.267 225.337 -192.896 220.996C-190.944 220.179 -95.9207 180.406 -89.0651 177.536C-78.7384 173.214 -73.8456 161.392 -78.1792 151.038C-82.4946 140.728 -94.3248 135.854 -104.695 140.194C-111.42 143.009 -165.484 165.638 -167.393 166.437C-177.72 170.76 -189.575 165.947 -193.909 155.594C-198.242 145.24 -193.338 133.566 -183.012 129.244L-27.7203 64.2448C47.3184 32.8876 116.351 3.9932 121.8 1.66158C132.102 -2.59929 144.037 2.28154 148.247 12.5847C152.563 22.8949 147.732 34.7426 137.361 39.0831C135.409 39.9004 26.1538 85.6301 19.2983 88.4996C8.97155 92.8219 4.07873 104.644 8.41228 114.998C12.7277 125.308 24.558 130.182 34.9281 125.841C41.6535 123.027 61.309 114.8 63.3917 113.928C73.7184 109.605 85.574 114.418 89.9075 124.771C94.2229 135.081 89.3916 146.929 79.0215 151.27C77.069 152.087 50.0806 163.383 43.225 166.253C32.8983 170.575 28.0055 182.398 32.3391 192.751C36.6545 203.061 48.4847 207.935 58.8549 203.595C65.5802 200.78 339.542 86.1101 341.625 85.2384C351.952 80.9161 363.807 85.7284 368.141 96.0819C372.456 106.392 367.625 118.24 357.255 122.58C355.223 123.329 165.776 202.725 158.798 205.545C148.471 209.867 143.578 221.689 147.912 232.043C152.227 242.353 164.058 247.227 174.428 242.886C181.153 240.071 254.612 209.325 256.651 208.471C266.978 204.149 278.833 208.961 283.167 219.315C287.482 229.625 282.651 241.473 272.281 245.813C270.328 246.63 175.305 286.403 168.449 289.273C158.123 293.595 153.23 305.418 157.563 315.771C161.879 326.081 173.709 330.955 184.079 326.615C190.805 323.8 244.868 301.171 246.777 300.372C257.104 296.049 268.96 300.862 273.293 311.215C277.627 321.569 272.777 333.373 262.407 337.714L103.731 404.129C30.0376 434.923 -36.9994 462.982 -42.405 465.296C-52.7065 469.556 -64.6416 464.676 -68.8521 454.372C-73.1676 444.062 -68.3363 432.215 -57.9661 427.874C-56.0136 427.057 53.2415 381.327 60.097 378.458C70.4237 374.135 75.3166 362.313 70.983 351.959C66.6676 341.649 54.8373 336.775 44.4672 341.116C37.7418 343.931 18.0863 352.158 16.0036 353.029C5.67687 357.352 -6.17869 352.539 -10.5122 342.186C-14.8277 331.876 -9.99633 320.028 0.373785 315.687C2.32632 314.87 29.3147 303.574 36.1702 300.705C46.4969 296.382 51.3898 284.56 47.0563 274.206C42.7408 263.896 30.9105 259.022 20.5404 263.363C13.815 266.178 -260.147 380.847 -262.23 381.719C-272.556 386.041 -284.412 381.229 -288.746 370.875C-293.061 360.565 -288.23 348.717 -277.86 344.377L-277.871 344.229Z" fill="#191F3B" fill-opacity="0.9"/>
</svg>
