<svg width="132" height="132" viewBox="0 0 132 132" fill="none" xmlns="http://www.w3.org/2000/svg">
<path d="M13.1078 94.6216C14.4576 107.237 24.604 117.384 37.2135 118.789C46.5793 119.833 56.1956 120.73 66 120.73C75.8044 120.73 85.4207 119.833 94.7862 118.789C107.396 117.384 117.542 107.237 118.892 94.6216C119.888 85.3089 120.73 75.7476 120.73 66C120.73 56.2523 119.888 46.6911 118.892 37.3782C117.542 24.7627 107.396 14.6161 94.7862 13.2107C85.4207 12.1667 75.8044 11.2701 66 11.2701C56.1956 11.2701 46.5793 12.1667 37.2135 13.2107C24.604 14.6161 14.4576 24.7627 13.1078 37.3782C12.1115 46.6911 11.2701 56.2523 11.2701 66C11.2701 75.7476 12.1115 85.3089 13.1078 94.6216Z" stroke="#BADD50" stroke-width="11.71" stroke-linecap="round" stroke-linejoin="round"/>
<path d="M44.108 71.473L60.0294 87.892C67.5215 66.3706 73.761 56.9267 87.892 44.108" stroke="#BADD50" stroke-width="11.71" stroke-linecap="round" stroke-linejoin="round"/>
</svg>
