<svg width="86" height="86" viewBox="0 0 86 86" fill="none" xmlns="http://www.w3.org/2000/svg">
<rect width="86" height="86" rx="43" fill="#A0E1BE"/>
<path d="M64.3613 22.0733C66.706 24.658 66.5113 28.654 63.9266 30.9988C58.7848 35.6634 55.3331 39.4829 52.4897 43.9219C49.6201 48.4 47.1963 53.7783 44.4177 61.7586C43.6974 63.829 41.9551 65.3779 39.8143 65.851C37.6736 66.3241 35.4409 65.6538 33.9143 64.0799L21.7825 51.569C19.3531 49.0638 19.4147 45.0635 21.92 42.6341C24.4252 40.2048 28.4256 40.2664 30.8549 42.7716L36.0913 48.1713C37.8538 44.0486 39.709 40.4448 41.849 37.1046C45.5012 31.404 49.8105 26.7416 55.4359 21.6387C58.0207 19.2941 62.0166 19.4886 64.3613 22.0733Z" fill="white"/>
</svg>
