<svg width="86" height="86" viewBox="0 0 86 86" fill="none" xmlns="http://www.w3.org/2000/svg">
<rect width="86" height="86" rx="43" fill="#FF6060"/>
<path d="M21.9248 64.0752C24.4913 66.6416 28.6523 66.6416 31.2189 64.0752L43.0008 52.2935L54.7818 64.0741C57.3483 66.6405 61.5086 66.6405 64.0751 64.0741C66.6416 61.5077 66.6416 57.3468 64.0751 54.7805L52.2941 42.9999L64.0751 31.2195C66.6416 28.6532 66.6416 24.4923 64.0751 21.9259C61.5086 19.3596 57.3483 19.3596 54.7818 21.9259L43.0008 33.7063L31.2189 21.9248C28.6524 19.3584 24.4914 19.3584 21.925 21.9248C19.3585 24.4912 19.3585 28.652 21.925 31.2184L33.7066 42.9999L21.9248 54.7816C19.3584 57.348 19.3584 61.5089 21.9248 64.0752Z" fill="white"/>
</svg>
